.
..............................Site Info...........................

 -   http://www.scenetime.com  *_*   


Scenetime .Always on time . friendly online private torrent community ..

     We care to share . Join us on  http://www.scenetime.com 

    Be the first to get new release at  http://www.scenetime.com

        Seed back for speed


...................................NFO:.................................................[img]http://i.imgur.com/h3Arf.jpg[/img]

[b]Safe.2012.R5.LiNe.XviD.AC3-ADTRG[/b]

Mei, a young girl whose memory holds a priceless numerical code, finds herself pursued by the Triads, the Russian mob, and corrupt NYC cops. Coming to her aid is an ex-cage fighter whose life was destroyed by the gangsters on Mei's trail. 

[url]http://www.imdb.com/title/tt1656190/[/url]

Source -    video        DVDR     Thanks
Source -   audio/subs Feel-Free   Thanks 

Complete name                            : Safe.2012.R5.LiNe.XviD.AC3-ADTRG.avi
Format                                   : AVI
Format/Info                              : Audio Video Interleave
File size                                : 1.26 GiB
Duration                                 : 1h 30mn
Overall bit rate                         : 2 001 Kbps
Writing library                          : VirtualDub build 34703/release

Video
ID                                       : 0
Format                                   : MPEG-4 Visual
Codec ID                                 : XVID
Duration                                 : 1h 30mn
Bit rate                                 : 1 799 Kbps
Width                                    : 720 pixels
Height                                   : 304 pixels
Frame rate                               : 25.000 fps
Stream size                              : 1.13 GiB (90%)

Audio
ID                                       : 1
Format                                   : AC-3
Bit rate                                 : 192 Kbps
Channel(s)                               : 2 channels
Stream size                              : 124 MiB (10%)



ripped DVDR - cleaned and subbed , took 5.1 and removed russan, cleaned LiNe (yes its 100% LiNe) and added to 5.1, down mixed back to 2.0
synced to video . came out sweet. enjoy

[img]http://i.imgur.com/g6t1v.jpg[/img]


[IMG]http://i.imgur.com/2739o.gif?1?8830[/IMG]

Dont fear the Atomic Dragon, Embrace it  :)


Greetz to DragonMaster,cOOkies,Mr Geek,DBratt420,AnimeKing,Jiinx,Cush,NoWoRRiEs Rayne, Mr & Mrs IrNbRu and the rest of the crew

Respect to CM8,Goon,Hope,mSD,InfernO,legend-rg and maybe a few more ;)